{"title":"Underground 2011 DVDRiP XViD-OCW","uid":6870550,"size":733493643,"categoryP":"video","categoryS":"movies","magnet":"?xt=urn:btih:946c5e863f85334184561ef8a462d4d9a418203c&amp;dn=Underground+2011+DVDRiP+XViD-OCW&amp;tr=udp%3A%2F%2Ftracker.openbittorrent.com%3A80&amp;tr=udp%3A%2F%2Fopen.demonii.com%3A1337&amp;tr=udp%3A%2F%2Ftracker.coppersurfer.tk%3A6969&amp;tr=udp%3A%2F%2Fexodus.desync.com%3A6969","seeders":5,"leechers":0,"uploader":"LegendET","files":2,"time":1323263502,"description":"[center][img]http://img151.imageshack.us/img151/4566/glui.jpg[/img]\n\n\nGenre : Horror\n\nPlot : A group of friends fight for their lives against the lethal and ravenous creatures lurking beneath the Earth's surface. The group finds themselves at the mercy of creatures genetically engineered by the military to be expendable in battle. Though they fought countless battles in Iraq, these friends never knew real fear until they went underground.\n\n\nFormat : AVI \nFormat/Info : Audio Video Interleave \nFile size : 700 MiB \nDuration : 1h 23mn \nOverall bit rate : 1 177 Kbps \nWriting library : MPlayer \n\nVideo \nID : 0 \nFormat : MPEG-4 Visual \nFormat profile : Advanced Simple@L5 \nFormat settings, BVOP : 2 \nFormat settings, QPel : No \nFormat settings, GMC : No warppoints \nFormat settings, Matrix : Default (H.263) \nCodec ID : XVID \nCodec ID/Hint : XviD \nDuration : 1h 23mn \nBit rate : 916 Kbps \nWidth : 640 pixels \nHeight : 352 pixels \nDisplay aspect ratio : 16:9 \nFrame rate : 25.000 fps \nColor space : YUV \nChroma subsampling : 4:2:0 \nBit depth : 8 bits \nScan type : Progressive \nCompression mode : Lossy \nBits/(Pixel*Frame) : 0.163 \nStream size : 544 MiB (78%) \nWriting library : XviD 63 \n\nAudio \nID : 1 \nFormat : MPEG Audio \nFormat version : Version 1 \nFormat profile : Layer 3 \nMode : Joint stereo \nCodec ID : 55 \nCodec ID/Hint : MP3 \nDuration : 1h 23mn \nBit rate mode : Constant \nBit rate : 256 Kbps \nChannel(s) : 2 channels \nSampling rate : 44.1 KHz \nCompression mode : Lossy \nDelay relative to video : 40ms \nStream size : 152 MiB (22%) \nAlignment : Split accross interleaves \nInterleave, duration : 500 ms (12.50 video frames) \nInterleave, preload duration : 500 ms\n &lt;a href=&quot;\nhttp://www.imdb.com/title/tt1811371/&quot; rel=&quot;nofollow&quot; target=&quot;_NEW&quot;&gt;\nhttp://www.imdb.com/title/tt1811371/&lt;/a&gt;\n\n[img]http://img155.imageshack.us/img155/4181/vlcsnap2011120711h34m52.png[/img]\n[img]http://img210.imageshack.us/img210/7467/vlcsnap2011120711h33m51.png[/img]\n[img]http://img404.imageshack.us/img404/6984/vlcsnap2011120711h31m07.png[/img]\n[img]http://img337.imageshack.us/img337/753/vlcsnap2011120711h30m45.png[/img]\n[/center]","torrent":{"xt":"urn:btih:946c5e863f85334184561ef8a462d4d9a418203c","amp;dn":"Underground+2011+DVDRiP+XViD-OCW","amp;tr":["udp%3A%2F%2Ftracker.openbittorrent.com%3A80","udp%3A%2F%2Fopen.demonii.com%3A1337","udp%3A%2F%2Ftracker.coppersurfer.tk%3A6969","udp%3A%2F%2Fexodus.desync.com%3A6969"],"infoHash":"946c5e863f85334184561ef8a462d4d9a418203c","infoHashBuffer":{"type":"Buffer","data":[148,108,94,134,63,133,51,65,132,86,30,248,164,98,212,217,164,24,32,60]},"announce":[],"urlList":[]}}